<svg width="170" height="170" viewBox="0 0 170 170" fill="none" xmlns="http://www.w3.org/2000/svg">
<path d="M58.2191 70.7906H64.835V99.1262H58.2191V96.172C55.3065 99.5423 51.7698 100 49.7309 100C40.9931 100 36 92.7184 36 84.9376C36 75.7004 42.3245 70.0416 49.8141 70.0416C51.8946 70.0416 55.5562 70.5825 58.2191 74.0777V70.7906ZM42.7822 85.104C42.7822 90.0139 45.8613 94.1331 50.6463 94.1331C54.8072 94.1331 58.6768 91.0957 58.6768 85.1872C58.6768 78.9875 54.8488 76.0333 50.6463 76.0333C45.8613 75.9917 42.7822 80.0277 42.7822 85.104ZM72.699 70.7906H79.3148V73.3287C80.0638 72.4549 81.1456 71.4979 82.061 70.957C83.3509 70.208 84.5992 70 86.0971 70C87.7198 70 89.4674 70.2497 91.2982 71.3315L88.5936 77.3232C87.0957 76.3662 85.889 76.3245 85.2233 76.3245C83.8086 76.3245 82.3939 76.5326 81.104 77.8641C79.2732 79.8197 79.2732 82.5243 79.2732 84.3967V99.0846H72.6574L72.699 70.7906ZM95.5007 70.7906H102.117V73.4119C104.322 70.7074 106.943 70.0416 109.107 70.0416C112.061 70.0416 114.849 71.4563 116.43 74.2025C118.802 70.8322 122.338 70.0416 124.835 70.0416C128.288 70.0416 131.284 71.6644 132.907 74.4938C133.448 75.4508 134.405 77.5312 134.405 81.6505V99.1678H127.789V83.5645C127.789 80.4022 127.456 79.1123 127.165 78.5298C126.749 77.448 125.75 76.0333 123.379 76.0333C121.756 76.0333 120.341 76.9071 119.467 78.1137C118.302 79.7365 118.178 82.1498 118.178 84.5631V99.1678H111.562V83.5645C111.562 80.4022 111.229 79.1123 110.938 78.5298C110.522 77.448 109.523 76.0333 107.151 76.0333C105.528 76.0333 104.114 76.9071 103.24 78.1137C102.075 79.7365 101.95 82.1498 101.95 84.5631V99.1678H95.5007V70.7906Z" fill="#04040E"/>
</svg>
