<svg width="170" height="170" viewBox="0 0 170 170" fill="none" xmlns="http://www.w3.org/2000/svg">
<path d="M89.4999 68.1998C89.4999 71.1998 86.9999 73.6998 83.9999 73.6998C80.9999 73.6998 78.4999 71.1998 78.4999 68.1998C78.4999 65.1998 80.9999 62.6998 83.9999 62.6998C86.9999 62.6998 89.4999 65.0998 89.4999 68.1998ZM45.4999 64.1998C43.2999 64.1998 41.4999 65.9998 41.4999 68.1998C41.4999 70.3998 43.2999 72.1998 45.4999 72.1998C47.6999 72.1998 49.4999 70.3998 49.4999 68.1998C49.4999 65.9998 47.7999 64.1998 45.4999 64.1998ZM35.7999 74.2998C33.8999 74.2998 32.2999 75.8998 32.2999 77.7998C32.2999 79.6998 33.8999 81.2998 35.7999 81.2998C37.6999 81.2998 39.2999 79.6998 39.2999 77.7998C39.2999 75.8998 37.6999 74.2998 35.7999 74.2998ZM35.7999 55.7998C34.2999 55.7998 32.9999 56.9998 32.9999 58.5998C32.9999 60.1998 34.1999 61.3998 35.7999 61.3998C37.2999 61.3998 38.5999 60.1998 38.5999 58.5998C38.5999 56.9998 37.2999 55.7998 35.7999 55.7998ZM26.1999 65.3998C24.6999 65.3998 23.3999 66.5998 23.3999 68.1998C23.3999 69.7998 24.5999 70.9998 26.1999 70.9998C27.6999 70.9998 28.9999 69.7998 28.9999 68.1998C28.9999 66.5998 27.6999 65.3998 26.1999 65.3998ZM83.9999 81.5998C80.7999 81.5998 78.1999 84.1998 78.1999 87.3998C78.1999 90.5998 80.7999 93.1998 83.9999 93.1998C87.1999 93.1998 89.7999 90.5998 89.7999 87.3998C89.6999 84.1998 87.0999 81.5998 83.9999 81.5998ZM74.3999 72.2998C71.3999 72.2998 68.8999 74.7998 68.8999 77.7998C68.8999 80.7998 71.3999 83.2998 74.3999 83.2998C77.3999 83.2998 79.8999 80.7998 79.8999 77.7998C79.8999 74.7998 77.3999 72.2998 74.3999 72.2998ZM74.3999 91.2998C71.1999 91.2998 68.5999 93.8998 68.5999 97.0998C68.5999 100.3 71.1999 102.9 74.3999 102.9C77.5999 102.9 80.1999 100.3 80.1999 97.0998C80.1999 93.8998 77.4999 91.2998 74.3999 91.2998ZM64.6999 81.8998C61.6999 81.8998 59.1999 84.3998 59.1999 87.3998C59.1999 90.3998 61.6999 92.8998 64.6999 92.8998C67.6999 92.8998 70.1999 90.3998 70.1999 87.3998C70.1999 84.2998 67.6999 81.8998 64.6999 81.8998ZM54.9999 91.9998C52.1999 91.9998 49.9999 94.1998 49.9999 96.9998C49.9999 99.7998 52.1999 102 54.9999 102C57.7999 102 59.9999 99.7998 59.9999 96.9998C59.9999 94.2998 57.7999 91.9998 54.9999 91.9998ZM64.6999 101.6C61.8999 101.6 59.6999 103.8 59.6999 106.6C59.6999 109.4 61.8999 111.6 64.6999 111.6C67.4999 111.6 69.6999 109.4 69.6999 106.6C69.6999 103.8 67.4999 101.6 64.6999 101.6ZM45.4999 82.3998C42.6999 82.3998 40.4999 84.5998 40.4999 87.3998C40.4999 90.1998 42.6999 92.3998 45.4999 92.3998C48.2999 92.3998 50.4999 90.1998 50.4999 87.3998C50.4999 84.5998 48.2999 82.3998 45.4999 82.3998ZM54.9999 72.7998C52.1999 72.7998 49.9999 74.9998 49.9999 77.7998C49.9999 80.5998 52.1999 82.7998 54.9999 82.7998C57.7999 82.7998 59.9999 80.5998 59.9999 77.7998C59.9999 74.9998 57.7999 72.7998 54.9999 72.7998ZM88.0999 77.7998C88.0999 80.7998 90.5999 83.2998 93.5999 83.2998C96.5999 83.2998 99.0999 80.7998 99.0999 77.7998C99.0999 74.7998 96.5999 72.2998 93.5999 72.2998C90.4999 72.2998 88.0999 74.6998 88.0999 77.7998ZM108.1 116.3C108.1 118.9 110.2 121.1 112.9 121.1C115.6 121.1 117.7 119 117.7 116.3C117.7 113.6 115.6 111.5 112.9 111.5C110.2 111.5 108.1 113.7 108.1 116.3ZM117.6 106.6C117.6 109.2 119.7 111.4 122.4 111.4C125.1 111.4 127.2 109.3 127.2 106.6C127.2 103.9 125.1 101.8 122.4 101.8C119.7 101.8 117.6 104 117.6 106.6Z" fill="#04040E"/>
<path d="M59.7999 116.3C59.7999 118.9 57.7 121.1 55 121.1C52.4 121.1 50.2 119 50.2 116.3C50.2 113.6 52.3 111.5 55 111.5C57.7 111.6 59.7999 113.7 59.7999 116.3ZM45.5 101.9C42.9 101.9 40.7 104 40.7 106.7C40.7 109.4 42.8 111.5 45.5 111.5C48.1 111.5 50.2999 109.4 50.2999 106.7C50.2999 104 48.2 101.9 45.5 101.9ZM118.4 68.2002C118.4 70.4002 120.2 72.2002 122.4 72.2002C124.6 72.2002 126.4 70.4002 126.4 68.2002C126.4 66.0002 124.6 64.2002 122.4 64.2002C120.2 64.2002 118.4 65.9002 118.4 68.2002ZM128.6 77.8002C128.6 79.7002 130.2 81.3002 132.1 81.3002C134 81.3002 135.6 79.7002 135.6 77.8002C135.6 75.9002 134 74.3002 132.1 74.3002C130.2 74.3002 128.6 75.8002 128.6 77.8002ZM129.4 58.5002C129.4 60.0002 130.6 61.3002 132.2 61.3002C133.8 61.3002 135 60.1002 135 58.5002C135 56.9002 133.8 55.7002 132.2 55.7002C130.6 55.7002 129.4 57.0002 129.4 58.5002ZM139 68.2002C139 69.7002 140.2 71.0002 141.8 71.0002C143.4 71.0002 144.6 69.8002 144.6 68.2002C144.6 66.6002 143.4 65.4002 141.8 65.4002C140.2 65.4002 139 66.6002 139 68.2002ZM87.8 97.0002C87.8 100.2 90.3999 102.8 93.5999 102.8C96.7999 102.8 99.4 100.2 99.4 97.0002C99.4 93.8002 96.7999 91.2002 93.5999 91.2002C90.3999 91.3002 87.8 93.9002 87.8 97.0002ZM97.6999 87.4002C97.6999 90.4002 100.2 92.9002 103.2 92.9002C106.2 92.9002 108.7 90.4002 108.7 87.4002C108.7 84.4002 106.2 81.9002 103.2 81.9002C100.2 81.9002 97.6999 84.3002 97.6999 87.4002ZM107.9 97.0002C107.9 99.8002 110.1 102 112.9 102C115.7 102 117.9 99.8002 117.9 97.0002C117.9 94.2002 115.7 92.0002 112.9 92.0002C110.1 92.0002 107.9 94.3002 107.9 97.0002ZM98.1999 106.6C98.1999 109.4 100.4 111.6 103.2 111.6C106 111.6 108.2 109.4 108.2 106.6C108.2 103.8 106 101.6 103.2 101.6C100.5 101.6 98.1999 103.9 98.1999 106.6ZM117.4 87.4002C117.4 90.2002 119.6 92.4002 122.4 92.4002C125.2 92.4002 127.4 90.2002 127.4 87.4002C127.4 84.6002 125.2 82.4002 122.4 82.4002C119.6 82.4002 117.4 84.6002 117.4 87.4002ZM107.9 77.8002C107.9 80.6002 110.1 82.8002 112.9 82.8002C115.7 82.8002 117.9 80.6002 117.9 77.8002C117.9 75.0002 115.7 72.8002 112.9 72.8002C110.1 72.8002 107.9 75.0002 107.9 77.8002Z" fill="#04040E"/>
</svg>
