<svg width="200" height="170" viewBox="0 0 200 170" fill="none" xmlns="http://www.w3.org/2000/svg">
<path fill-rule="evenodd" clip-rule="evenodd" d="M66.2157 80.2764C68.2813 88.1989 76.1997 89.0027 78.7244 89.0027C79.1835 89.0027 79.5277 89.3472 79.6424 89.5768C78.7244 101.288 59.6745 103.929 47.3953 104.389C45.4445 104.503 43.7231 104.503 42.2312 104.503H39.018H37.5261H20.0829H11.1318C9.86944 104.503 8.72187 103.355 8.72187 101.977C8.72187 101.288 8.95137 100.714 9.41041 100.255C9.86944 99.7957 10.4432 99.5661 11.1318 99.5661H20.1977H24.0995C24.788 99.5661 25.3619 99.3364 25.8208 98.8772C26.2799 98.4179 26.5093 97.8437 26.5093 97.1549C26.5093 95.8919 25.4765 94.7437 24.0995 94.7437H18.0173C16.7549 94.7437 15.6073 93.5955 15.6073 92.2176C15.6073 91.5288 15.8369 90.9547 16.2959 90.4953C16.7549 90.0361 17.3287 89.8064 18.0173 89.8064H22.9519C23.6404 89.8064 24.2143 89.5768 24.6732 89.1176C25.1323 88.6583 25.3619 88.0841 25.3619 87.3952C25.3619 86.0175 24.3289 84.8692 22.9519 84.8692H17.3287C16.0664 84.8692 14.9188 83.7211 14.9188 82.3432C14.9188 81.6543 15.1483 81.0803 15.6073 80.6209C16.0664 80.1616 16.6401 79.932 17.3287 79.932H30.4112C31.0997 79.932 31.7883 79.5876 32.2473 79.1283C32.7063 78.6689 32.9359 78.0949 32.9359 77.406C32.9359 76.0282 31.7883 74.88 30.4112 74.88H28.4603C27.198 74.88 26.0504 73.8466 26.0504 72.4688C26.0504 71.7799 26.2799 71.2057 26.7389 70.7465C27.198 70.2872 27.7717 70.0576 28.4603 70.0576H37.9852C38.7885 69.9427 39.2476 69.9427 39.2476 69.9427C39.2476 69.9427 36.1491 67.0723 39.8213 65.2352C43.4936 63.3981 57.1499 72.928 57.1499 72.928C57.1499 72.928 58.1827 70.402 60.7073 71.4354C62.0844 71.8947 63.6911 74.7651 64.8387 77.0615C65.642 78.7839 66.2157 80.2764 66.2157 80.2764ZM59.904 88.4287C59.904 89.6916 60.9368 90.7251 62.1992 90.7251C63.4615 90.7251 64.4944 89.6916 64.4944 88.4287C64.4944 87.1656 63.4615 86.1323 62.1992 86.1323C60.9368 86.1323 59.904 87.1656 59.904 88.4287ZM15.9512 72.4688C15.9512 71.7799 16.1807 71.2058 16.6397 70.7465C17.0988 70.2872 17.6725 70.0576 18.3611 70.0576H20.8857C22.2629 70.0576 23.2957 71.2058 23.2957 72.5836C23.2957 73.2725 23.0661 73.8466 22.6072 74.3059C22.1481 74.7652 21.5743 74.9948 20.8857 74.9948H18.3611C17.0988 74.9948 15.9512 73.8466 15.9512 72.4688ZM108.791 93.0215H96.8557V104.503H89.5112V75.7985H96.8557V86.4767H108.791V75.9134H116.135V104.618H108.791V93.0215ZM126.119 105.077C128.681 105.077 131.135 104.212 132.431 102.692V104.503H139.087V91.5288C139.087 85.0989 134.381 83.2619 129.447 83.2619C126.234 83.2619 122.677 84.1804 120.037 86.4768L122.447 90.6103C124.054 89.2324 126.234 88.4287 128.3 88.4287C131.054 88.4287 132.546 89.5769 132.546 91.414V94.0548C131.283 92.5621 128.873 91.6436 126.119 91.6436C122.906 91.6436 119.004 93.1363 119.004 98.1883C119.004 102.896 122.906 105.077 126.119 105.077ZM132.546 97.3845C131.857 96.466 130.365 95.8919 128.873 95.8919C127.152 95.8919 125.545 96.6956 125.545 98.3032C125.545 99.9107 127.037 100.714 128.873 100.714C130.365 100.714 131.857 100.255 132.546 99.2217V97.3845ZM151.48 100.14C148.956 100.14 145.628 98.7624 144.136 97.3845L141.496 101.863C143.677 103.814 147.579 105.077 151.251 105.077C157.219 105.077 160.661 102.092 160.661 98.1883C160.661 92.6769 155.497 91.7584 151.94 91.1844C149.759 90.7251 148.612 90.3807 148.612 89.462C148.612 88.5435 149.759 88.0843 151.251 88.0843C153.776 88.0843 156.071 89.2324 157.333 90.3807L159.857 86.0175C157.563 84.41 154.579 83.2619 151.136 83.2619C145.284 83.2619 142.185 86.4768 142.185 90.1509C142.185 95.4327 147.12 96.2364 150.677 96.8105C152.857 97.1549 154.235 97.6143 154.235 98.6476C154.235 99.4513 153.432 100.14 151.48 100.14ZM164.448 98.992V89.5768H161.005V83.8359H164.448V78.2097H170.989V83.8359H175.236V89.5768H170.989V97.1548C170.989 98.3031 171.677 99.2216 172.825 99.2216C173.515 99.2216 174.317 98.992 174.547 98.7623L175.809 103.7C175.005 104.503 173.399 105.077 170.875 105.077C166.743 105.077 164.448 103.011 164.448 98.992ZM183.499 105.996C183.155 106.8 182.236 107.144 180.744 107.144C180.171 107.144 179.597 107.029 179.023 106.8L178.105 112.656C178.793 112.885 180.4 113 180.975 113C184.876 112.885 187.975 111.852 189.696 107.489L199.105 83.7211H192.105L187.4 96.9253L182.696 83.7211H175.695L183.957 104.848L183.499 105.996ZM9.41017 94.6288H2.52468C1.14758 94.6288 0 93.4805 0 92.1028C0 91.4139 0.229516 90.8397 0.688549 90.3805C1.14758 89.9212 1.72137 89.6916 2.40992 89.6916H9.29541C10.6725 89.6916 11.7053 90.8397 11.7053 92.1028C11.7053 92.7917 11.4758 93.3657 11.0168 93.8251C10.6725 94.3992 9.98396 94.6288 9.41017 94.6288ZM7.34449 80.6209C6.88547 81.0801 6.65595 81.6543 6.65595 82.3432C6.65595 83.7209 7.80353 84.8692 9.06587 84.7544H9.86917C10.5577 84.7544 11.1315 84.5247 11.5905 84.0655C12.0496 83.6061 12.2791 83.0321 12.2791 82.3432C12.2791 81.0801 11.2463 79.932 9.86917 79.932H9.06587C8.37732 79.932 7.80353 80.1616 7.34449 80.6209Z" fill="#04040E"/>
</svg>
