<svg width="32" height="32" viewBox="0 0 32 32" fill="none" xmlns="http://www.w3.org/2000/svg">
<path d="M4.84644 5.88046C7.53353 2.86137 11.3799 1 15.6903 1C18.105 1 20.3821 1.59864 22.3914 2.65273" stroke="white" stroke-width="2" stroke-miterlimit="10"/>
<path d="M12.0086 12.7C12.6316 11.8995 14.8252 11.1904 15.2773 10.0648C15.3842 9.79816 15.5057 9.17157 15.1558 9.04066C14.5748 8.89816 13.1939 8.89407 12.6837 8.89816C11.7121 8.90634 11.2774 8.17816 11.1746 7.82429C11.0724 7.47043 10.8721 6.6277 13.1739 4.68929C10.615 4.30815 9.30547 6.12111 9.13586 6.39588C7.75759 6.04611 6.58766 6.13065 5.60938 6.45043C5.60804 6.44974 5.60671 6.44906 5.60537 6.44838C3.9867 5.65542 3.88587 3.47156 3.88587 3.47156C3.88587 3.47156 1.83449 5.15565 2.33732 8.99361C-0.335759 14.6152 1.63416 21.2514 2.77804 23.2498C3.8211 25.075 7.65341 31 16.6803 31C25.7072 31 30.3241 22.4555 29.5802 20.4025C30.6847 18.1579 31.1709 15.507 30.9465 13.0791C30.423 7.41384 25.2464 3.62906 25.2464 3.62906C25.2464 3.62906 25.3092 3.99179 25.4047 4.76565C24.0378 3.25815 22.9106 2.48633 21.0088 2.48633C23.6204 4.40906 26.1185 9.68498 25.9149 14.1175C25.3272 12.5868 24.5226 11.9507 24.5226 11.9507C25.2064 18.3373 21.8916 22.9286 19.3 23.4502C17.3601 23.8409 13.7435 23.678 11.4163 20.8934C12.8627 21.2548 14.8239 21.1014 15.9932 20.2757C16.6997 19.7766 17.4856 19.09 18.2382 19.1254C18.8245 19.1534 19.1757 18.6775 18.737 18.1648C18.3003 17.652 17.1431 16.6825 15.8002 17.3323C12.1128 19.1159 9.65271 16.4793 10.0787 14.9336C10.3539 13.9361 11.2667 14.0984 11.9345 14.7236C11.9345 14.7243 12.279 13.645 12.0086 12.7Z" stroke="white" stroke-width="2" stroke-miterlimit="10" stroke-linecap="square"/>
</svg>
