<svg width="32" height="32" viewBox="0 0 32 32" fill="none" xmlns="http://www.w3.org/2000/svg">
<path d="M20.753 30.2127C19.5319 30.5989 18.2415 30.716 16.9707 30.5557C15.7 30.3954 14.4792 29.9616 13.3926 29.2843H13.3831C12.3365 28.633 11.43 27.7803 10.7162 26.7759C9.23688 24.751 8.62335 22.222 9.01059 19.7453C9.39784 17.2686 10.7541 15.0469 12.7812 13.5689C13.2076 13.2564 13.6611 12.9826 14.1364 12.751" stroke="white" stroke-width="2" stroke-miterlimit="10"/>
<path d="M1.00049 15.7649C1.05781 11.4857 5.30233 8.05444 10.3671 8.05444C12.0761 8.07177 13.759 8.47489 15.2899 9.23364C16.8105 9.98733 18.0702 11.1786 18.9066 12.654C19.4625 13.7079 19.7552 14.8804 19.7596 16.0716" stroke="white" stroke-width="2" stroke-miterlimit="10"/>
<path d="M18.8449 18.441C18.7507 18.5651 18.4587 18.7341 18.4587 19.1049C18.4748 19.2795 18.5329 19.4475 18.6279 19.5949C18.723 19.7423 18.8522 19.8646 19.0046 19.9515C20.5112 20.7114 22.1917 21.0617 23.8769 20.9671C25.126 20.9642 26.3514 20.6267 27.4254 19.9897C28.5101 19.3587 29.4108 18.4553 30.0378 17.369C30.6648 16.2828 30.9965 15.0517 30.9998 13.7978C31.0115 11.9976 30.5533 10.2253 29.6705 8.65572C28.3158 6.24928 26.3231 4.26249 23.9115 2.91375C21.4999 1.565 18.7626 0.906526 16.0006 1.01069C12.0522 1.00221 8.26032 2.5523 5.45076 5.32341C2.6412 8.09452 1.04154 11.8622 1.00015 15.8059C0.990128 18.0689 1.47501 20.3067 2.42091 22.3631C3.96907 25.6965 6.69493 28.3416 10.0756 29.791C13.4562 31.2404 17.2536 31.392 20.7392 30.2167C24.0225 29.098 26.8289 26.9003 28.7001 23.9826C28.7565 23.8947 28.7818 23.7906 28.7721 23.6867C28.7623 23.5828 28.7181 23.4851 28.6463 23.4092C28.5746 23.3334 28.4796 23.2836 28.3763 23.268C28.273 23.2523 28.1674 23.2716 28.0764 23.3228C27.6784 23.5292 27.2682 23.7113 26.8481 23.8681C25.502 24.371 24.0762 24.6273 22.639 24.6247C17.0911 24.6247 12.2597 20.8076 12.2597 15.9218C12.2674 15.2682 12.4493 14.6284 12.7865 14.0682C13.1238 13.5081 13.6043 13.0477 14.1786 12.7345C14.7386 12.4316 15.3639 12.2693 16.0006 12.2615C16.5862 12.2654 17.1629 12.405 17.6853 12.6692C18.2077 12.9335 18.6616 13.3151 19.0114 13.7842C19.4816 14.4101 19.7423 15.168 19.7566 15.9504C19.7566 16.0049 19.7566 16.0649 19.7566 16.1099C19.6953 16.9611 19.3774 17.7737 18.8449 18.441V18.441Z" stroke="white" stroke-width="2" stroke-miterlimit="10" stroke-linecap="square"/>
</svg>
