<svg width="32" height="32" viewBox="0 0 32 32" fill="none" xmlns="http://www.w3.org/2000/svg">
<path d="M15.9999 22.1363C19.3889 22.1363 22.1363 19.3889 22.1363 15.9999C22.1363 12.6109 19.3889 9.86353 15.9999 9.86353C12.6109 9.86353 9.86353 12.6109 9.86353 15.9999C9.86353 19.3889 12.6109 22.1363 15.9999 22.1363Z" stroke="white" stroke-width="2" stroke-miterlimit="10"/>
<path d="M16.0005 9.86353H29.6921" stroke="white" stroke-width="2" stroke-miterlimit="10"/>
<path d="M10.686 19.068L3.83984 7.21118" stroke="white" stroke-width="2" stroke-miterlimit="10"/>
<path d="M21.3142 19.0684L14.4688 30.9252" stroke="white" stroke-width="2" stroke-miterlimit="10"/>
<path d="M16 31C24.2843 31 31 24.2843 31 16C31 7.71573 24.2843 1 16 1C7.71573 1 1 7.71573 1 16C1 24.2843 7.71573 31 16 31Z" stroke="white" stroke-width="2" stroke-miterlimit="10" stroke-linecap="square"/>
</svg>
