<svg width="32" height="32" viewBox="0 0 32 32" fill="none" xmlns="http://www.w3.org/2000/svg">
<path d="M14.0005 14.0002L18 17.9998" stroke="white" stroke-width="2" stroke-miterlimit="10"/>
<path d="M23.0002 8.99951L14.0002 14L8.99976 23L17.9998 17.9995L23.0002 8.99951Z" stroke="white" stroke-width="2" stroke-miterlimit="10" stroke-linecap="square"/>
<path d="M16 31C24.2843 31 31 24.2843 31 16C31 7.71573 24.2843 1 16 1C7.71573 1 1 7.71573 1 16C1 24.2843 7.71573 31 16 31Z" stroke="white" stroke-width="2" stroke-miterlimit="10" stroke-linecap="square"/>
<path d="M16 4.40894V5.77257" stroke="white" stroke-width="2" stroke-miterlimit="10" stroke-linecap="square"/>
<path d="M27.5912 16.0002H26.2275" stroke="white" stroke-width="2" stroke-miterlimit="10" stroke-linecap="square"/>
<path d="M24.196 24.1963L23.2319 23.2322" stroke="white" stroke-width="2" stroke-miterlimit="10" stroke-linecap="square"/>
<path d="M16 27.5912V26.2275" stroke="white" stroke-width="2" stroke-miterlimit="10" stroke-linecap="square"/>
<path d="M4.40869 16.0002H5.77233" stroke="white" stroke-width="2" stroke-miterlimit="10" stroke-linecap="square"/>
<path d="M7.8042 7.80371L8.76829 8.7678" stroke="white" stroke-width="2" stroke-miterlimit="10" stroke-linecap="square"/>
</svg>
