<svg width="45" height="15" viewBox="0 0 45 15" fill="none" xmlns="http://www.w3.org/2000/svg">
<rect width="45" height="15" rx="2" fill="black"/>
<path d="M9.072 10H8.432L6.128 3.896H6.696L8.752 9.448L10.808 3.896H11.376L9.072 10ZM13.48 10.08C13.08 10.08 12.72 9.98133 12.4 9.784C12.08 9.58667 11.8293 9.31467 11.648 8.968C11.472 8.62133 11.384 8.23467 11.384 7.808C11.384 7.39733 11.4693 7.01867 11.64 6.672C11.8107 6.32533 12.0533 6.048 12.368 5.84C12.688 5.632 13.056 5.528 13.472 5.528C13.8667 5.528 14.2133 5.61867 14.512 5.8C14.816 5.976 15.056 6.22133 15.232 6.536C15.408 6.85067 15.5147 7.21333 15.552 7.624C15.5573 7.68267 15.56 7.77333 15.56 7.896H11.896C11.912 8.104 11.9547 8.30667 12.024 8.504C12.1467 8.85067 12.336 9.12267 12.592 9.32C12.848 9.51733 13.144 9.616 13.48 9.616C13.8267 9.616 14.1253 9.52267 14.376 9.336C14.6267 9.14933 14.8053 8.90933 14.912 8.616H15.464C15.3307 9.048 15.0933 9.4 14.752 9.672C14.4107 9.944 13.9867 10.08 13.48 10.08ZM15.056 7.472C15.0187 7.248 14.9707 7.06667 14.912 6.928C14.784 6.63467 14.592 6.40533 14.336 6.24C14.0853 6.07467 13.8 5.992 13.48 5.992C13.16 5.992 12.8773 6.072 12.632 6.232C12.392 6.38667 12.2107 6.608 12.088 6.896C12.008 7.06667 11.9547 7.25867 11.928 7.472H15.056ZM17.4015 10C17.0868 10 16.8548 9.92533 16.7055 9.776C16.5615 9.62667 16.4895 9.36 16.4895 8.976V3.896H17.0095V8.896C17.0095 9.13067 17.0388 9.296 17.0975 9.392C17.1615 9.488 17.3002 9.536 17.5135 9.536H17.8015V10H17.4015Z" fill="white"/>
<path d="M27.48 10.08C27.08 10.08 26.72 9.98133 26.4 9.784C26.08 9.58667 25.8293 9.31467 25.648 8.968C25.472 8.616 25.384 8.22133 25.384 7.784C25.384 7.35733 25.472 6.97333 25.648 6.632C25.8293 6.29067 26.08 6.02133 26.4 5.824C26.72 5.62667 27.08 5.528 27.48 5.528C27.9547 5.528 28.36 5.65067 28.696 5.896C29.032 6.14133 29.2507 6.472 29.352 6.888H28.792C28.712 6.616 28.552 6.4 28.312 6.24C28.0773 6.07467 27.8 5.992 27.48 5.992C27.1813 5.992 26.912 6.06933 26.672 6.224C26.432 6.37867 26.2427 6.592 26.104 6.864C25.9707 7.136 25.904 7.44267 25.904 7.784C25.904 8.136 25.9707 8.45067 26.104 8.728C26.2427 9.00533 26.432 9.224 26.672 9.384C26.912 9.53867 27.1813 9.616 27.48 9.616C27.8213 9.616 28.112 9.52533 28.352 9.344C28.5973 9.15733 28.752 8.91467 28.816 8.616H29.384C29.2933 9.064 29.0747 9.42133 28.728 9.688C28.3813 9.94933 27.9653 10.08 27.48 10.08ZM30.8226 10H30.3026V5.608H30.8226V10ZM30.5666 4.592C30.4599 4.592 30.3666 4.55467 30.2866 4.48C30.2119 4.4 30.1746 4.30667 30.1746 4.2C30.1746 4.09333 30.2119 4.00267 30.2866 3.928C30.3666 3.85333 30.4599 3.816 30.5666 3.816C30.6732 3.816 30.7639 3.85333 30.8386 3.928C30.9186 4.00267 30.9586 4.09333 30.9586 4.2C30.9586 4.30667 30.9186 4.4 30.8386 4.48C30.7639 4.55467 30.6732 4.592 30.5666 4.592ZM33.3104 10C32.9638 10 32.7131 9.92267 32.5584 9.768C32.4038 9.608 32.3264 9.31733 32.3264 8.896V6.072H31.6144V5.608H32.3264V3.896H32.8464V5.608H33.8784V6.072H32.8464V8.792C32.8464 8.984 32.8571 9.13067 32.8784 9.232C32.9051 9.328 32.9584 9.40267 33.0384 9.456C33.1238 9.50933 33.2544 9.536 33.4304 9.536H33.8704V10H33.3104ZM34.7001 11.712V11.24H35.1801C35.3667 11.24 35.5027 11.2107 35.5881 11.152C35.6787 11.0933 35.7587 10.9787 35.8281 10.808L36.1481 9.96L34.3241 5.608H34.9001L36.4121 9.296L37.7401 5.608H38.3161L36.3321 10.984C36.2201 11.2773 36.0841 11.472 35.9241 11.568C35.7694 11.664 35.6014 11.712 35.4201 11.712H34.7001Z" fill="white"/>
<circle cx="21.7" cy="7.7" r="2.25" stroke="white" stroke-width="0.5"/>
<path d="M19 10.5C19 10.5 20.5 10 21.5 7.47531C22.5 4.95062 24 4.5 24 4.5" stroke="black" stroke-linecap="round"/>
<path d="M19.2 10.7C19.2 10.7 20.7 10.2 21.7 7.67531C22.7 5.15062 24.2 4.7 24.2 4.7" stroke="white" stroke-width="0.5"/>
</svg>
